Coordinates
version=1
nRows=26
nColumns=22
inDegrees=yes

Units are S.I. units (second, meters, Newtons, ...)
If the header above contains a line with 'inDegrees', this indicates whether rotational values are in degrees (yes) or radians (no).

endheader
time	pelvis_tilt	pelvis_list	pelvis_rotation	pelvis_tx	pelvis_ty	pelvis_tz	hip_flexion_r	hip_adduction_r	hip_rotation_r	knee_angle_r	ankle_angle_r	subtalar_angle_r	hip_flexion_l	hip_adduction_l	hip_rotation_l	knee_angle_l	ankle_angle_l	subtalar_angle_l	lumbar_extension	lumbar_bending	lumbar_rotation
      0.01000000	     -6.64208205	     -1.58401967	    -11.44250151	     -1.13524662	      0.88940363	      0.83468055	    -10.24517888	      5.07203632	     -7.30864175	    -13.31603818	     19.93820447	      2.36224837	     39.43522955	     -3.98756969	    -10.81194306	    -27.59486320	      3.65024216	     -4.68779747	     -7.59550551	     -1.18904892	      7.68342073
      0.02000000	     -6.73715862	     -1.50845481	    -11.51203160	     -1.12919076	      0.88907454	      0.83501201	    -10.48155565	      4.91539080	     -7.09439120	    -13.36731333	     19.45856948	      2.63035250	     39.63438962	     -3.93317840	    -10.70691104	    -28.38673610	      3.17754545	     -5.34828349	     -7.33380402	     -1.38227183	      7.63480988
      0.03000000	     -6.80171575	     -1.39422921	    -11.56217505	     -1.12194410	      0.88888149	      0.83535105	    -10.80194536	      4.69663885	     -6.88215913	    -13.43881941	     18.84285933	      2.88917360	     39.79558664	     -3.82507548	    -10.59250666	    -29.28648574	      2.72223960	     -6.04501360	     -7.06652955	     -1.64518929	      7.55229323
      0.04000000	     -6.83847438	     -1.24039365	    -11.58293465	     -1.11375920	      0.88885248	      0.83566776	    -11.17978516	      4.41832357	     -6.68703039	    -13.53833099	     18.08836139	      3.15520651	     39.90716426	     -3.65701867	    -10.47083499	    -30.24261294	      2.34048272	     -6.71202809	     -6.79421262	     -1.97339517	      7.44226470
      0.05000000	     -6.85167034	     -1.04450944	    -11.56742448	     -1.10487534	      0.88901451	      0.83592667	    -11.59766283	      4.08389503	     -6.50464623	    -13.65283425	     17.20808567	      3.42712201	     39.94722323	     -3.41285081	    -10.32499269	    -31.18323719	      2.05868763	     -7.27779770	     -6.51401088	     -2.36182009	      7.31546298
      0.06000000	     -6.84048816	     -0.82474726	    -11.51049794	     -1.09555203	      0.88939558	      0.83607640	    -12.02626558	      3.71520754	     -6.31430471	    -13.81179044	     16.20835476	      3.70637969	     39.89927597	     -3.09691340	    -10.14133449	    -32.05681595	      1.86469141	     -7.70884497	     -6.24650781	     -2.77796788	      7.14344578
      0.07000000	     -6.82509351	     -0.56054239	    -11.42514656	     -1.08589293	      0.88995329	      0.83611612	    -12.43397048	      3.28778442	     -6.17741036	    -14.00844523	     15.12746854	      4.07917580	     39.76537446	     -2.69739186	     -9.95331825	    -32.82374979	      1.84080876	     -8.09080316	     -5.95198179	     -3.24425911	      7.00696240
      0.08000000	     -6.80475190	     -0.29722192	    -11.31502231	     -1.07612685	      0.89071041	      0.83601658	    -12.78030305	      2.85161943	     -6.04079672	    -14.31189568	     13.93160091	      4.46044893	     39.54410966	     -2.25621961	     -9.74429794	    -33.46684884	      1.89451412	     -8.35606142	     -5.66911367	     -3.69455345	      6.85690477
      0.09000000	     -6.79664596	     -0.02224444	    -11.19782771	     -1.06628305	      0.89161434	      0.83582035	    -13.04396229	      2.39333044	     -5.92392404	    -14.71494085	     12.65566126	      4.92461625	     39.24766001	     -1.78596019	     -9.57048856	    -33.98045092	      2.08430821	     -8.56941560	     -5.36241482	     -4.14637627	      6.73507815
      0.10000000	     -6.80832182	      0.25140807	    -11.09077717	     -1.05643847	      0.89264333	      0.83554959	    -13.19596348	      1.92382836	     -5.80421980	    -15.25123810	     11.30126802	      5.48393138	     38.88320641	     -1.31289172	     -9.43927832	    -34.36077553	      2.39732116	     -8.74275984	     -5.03263085	     -4.58080816	      6.64971338
      0.11000000	     -6.83490269	      0.50157301	    -11.00393863	     -1.04666986	      0.89379194	      0.83521964	    -13.21090377	      1.46064475	     -5.68043079	    -15.97416824	      9.87483222	      6.15069699	     38.44829167	     -0.86067965	     -9.33114820	    -34.60841833	      2.80692044	     -8.88614724	     -4.70067248	     -4.97277367	      6.62891623
      0.12000000	     -6.88340116	      0.71969519	    -10.93494615	     -1.03697317	      0.89501707	      0.83486390	    -13.08346780	      1.01644248	     -5.56497345	    -16.87788180	      8.35324389	      6.82992242	     37.97045997	     -0.45766754	     -9.28978294	    -34.76133129	      3.27434995	     -8.98343904	     -4.35696478	     -5.31287649	      6.62740901
      0.13000000	     -6.94339265	      0.89802125	    -10.88725174	     -1.02737295	      0.89631617	      0.83449541	    -12.80776835	      0.59570071	     -5.44938309	    -17.99123086	      6.74873952	      7.53493553	     37.44506176	     -0.10603633	     -9.28820303	    -34.82670482	      3.79739795	     -9.05228503	     -4.02059162	     -5.59542643	      6.65358231
      0.14000000	     -7.00550279	      1.02821320	    -10.85621349	     -1.01788876	      0.89767084	      0.83410292	    -12.38249086	      0.20398849	     -5.33012369	    -19.33298863	      5.07549225	      8.25107471	     36.88011175	      0.19265068	     -9.30402582	    -34.83067528	      4.36220395	     -9.10048727	     -3.70911374	     -5.80981103	      6.69377778
      0.15000000	     -7.06186988	      1.10441296	    -10.82927751	     -1.00853526	      0.89907045	      0.83368448	    -11.80572652	     -0.14982672	     -5.20562295	    -20.92014977	      3.35343648	      8.90326902	     36.28134754	      0.44014558	     -9.31732749	    -34.79199997	      4.95082808	     -9.12695110	     -3.43727983	     -5.95527597	      6.73303881
      0.16000000	     -7.10132761	      1.12691288	    -10.79375642	     -0.99933216	      0.90049973	      0.83322076	    -11.08066239	     -0.46627415	     -5.07987411	    -22.76626368	      1.60673854	      9.48384909	     35.65321038	      0.64550537	     -9.30825868	    -34.73258527	      5.55528535	     -9.14256840	     -3.22338898	     -6.03442149	      6.75524130
      0.17000000	     -7.11632243	      1.10716450	    -10.74140308	     -0.99029778	      0.90193329	      0.83269212	    -10.21171534	     -0.75522327	     -4.94941439	    -24.86813232	     -0.14474316	      9.93811235	     35.00189686	      0.82577931	     -9.26807725	    -34.66641889	      6.14578454	     -9.15314673	     -3.07625525	     -6.06083883	      6.74595259
      0.18000000	     -7.09997314	      1.05602047	    -10.66463497	     -0.98144982	      0.90334134	      0.83208649	     -9.20587491	     -1.02785920	     -4.82865844	    -27.21893995	     -1.87387557	     10.27140077	     34.32603488	      0.99402686	     -9.19606699	    -34.59604399	      6.72347617	     -9.16538398	     -3.00452901	     -6.04900302	      6.69398079
      0.19000000	     -7.04345088	      0.99989729	    -10.56063367	     -0.97281055	      0.90469058	      0.83139685	     -8.07741352	     -1.30893158	     -4.71460242	    -29.79375189	     -3.58975220	     10.44562426	     33.63246071	      1.17791256	     -9.09495328	    -34.53798136	      7.27636946	     -9.17795171	     -3.01594369	     -6.03252239	      6.60340253
      0.20000000	     -6.91945044	      0.96166022	    -10.42470164	     -0.96436145	      0.90600156	      0.83064964	     -6.87901968	     -1.61742648	     -4.60164868	    -32.53409712	     -5.32087546	     10.42503928	     32.88522733	      1.40246488	     -8.97928972	    -34.47374438	      7.82869465	     -9.16899823	     -3.13723282	     -6.04903410	      6.44265833
      0.21000000	     -6.81221130	      0.94363498	    -10.26696376	     -0.95617884	      0.90711719	      0.82982107	     -5.50147696	     -1.95462751	     -4.52227328	    -35.45282900	     -7.00920250	     10.30089280	     32.18422114	      1.64940939	     -8.85555753	    -34.41046668	      8.30722733	     -9.20991097	     -3.26937702	     -6.07495265	      6.28571937
      0.22000000	     -6.65005279	      0.96628501	    -10.07218744	     -0.94818077	      0.90815017	      0.82892574	     -4.07467895	     -2.33658989	     -4.44288381	    -38.43576557	     -8.66508020	     10.03237690	     31.44041854	      1.95713805	     -8.73201820	    -34.33288647	      8.80236886	     -9.25695985	     -3.48967149	     -6.15273771	      6.05767709
      0.23000000	     -6.45129762	      1.02672568	     -9.84323769	     -0.94037181	      0.90909374	      0.82796991	     -2.59266664	     -2.75961679	     -4.36749982	    -41.43876518	    -10.21837667	      9.70750043	     30.66510716	      2.31635377	     -8.61169584	    -34.22696700	      9.28132114	     -9.31401267	     -3.77607941	     -6.27440144	      5.78210944
      0.24000000	     -6.22970013	      1.12108882	     -9.58027015	     -0.93274194	      0.90996236	      0.82695287	     -1.06216430	     -3.20593636	     -4.26143453	    -44.40218484	    -11.59351218	      9.40128927	     29.86262300	      2.72150026	     -8.49020856	    -34.07747937	      9.72606870	     -9.37723133	     -4.11051250	     -6.42908500	      5.44399453
      0.25000000	     -6.01232780	      1.23263093	     -9.27922292	     -0.92529069	      0.91071554	      0.82585636	      0.53277875	     -3.65987975	     -4.14883358	    -47.29514709	    -12.62534623	      9.07974131	     29.07103597	      3.14543188	     -8.38119463	    -33.91332787	     10.19825394	     -9.48374408	     -4.46074540	     -6.58790374	      5.06421632
      0.26000000	     -5.76931625	      1.34044583	     -8.93960687	     -0.91800098	      0.91149290	      0.82466132	      2.13430973	     -4.09324426	     -4.00035832	    -50.04918763	    -13.35220072	      8.87731198	     28.23505318	      3.58886903	     -8.21995918	    -33.69524328	     10.58920963	     -9.54349021	     -4.86548010	     -6.73121176	      4.67923386
